%TF.GenerationSoftware,KiCad,Pcbnew,9.0.4*%
%TF.CreationDate,2025-12-18T13:03:23+01:00*%
%TF.ProjectId,Cansat_PCB_IHM,43616e73-6174-45f5-9043-425f49484d2e,rev?*%
%TF.SameCoordinates,Original*%
%TF.FileFunction,Copper,L1,Top*%
%TF.FilePolarity,Positive*%
%FSLAX46Y46*%
G04 Gerber Fmt 4.6, Leading zero omitted, Abs format (unit mm)*
G04 Created by KiCad (PCBNEW 9.0.4) date 2025-12-18 13:03:23*
%MOMM*%
%LPD*%
G01*
G04 APERTURE LIST*
G04 Aperture macros list*
%AMRoundRect*
0 Rectangle with rounded corners*
0 $1 Rounding radius*
0 $2 $3 $4 $5 $6 $7 $8 $9 X,Y pos of 4 corners*
0 Add a 4 corners polygon primitive as box body*
4,1,4,$2,$3,$4,$5,$6,$7,$8,$9,$2,$3,0*
0 Add four circle primitives for the rounded corners*
1,1,$1+$1,$2,$3*
1,1,$1+$1,$4,$5*
1,1,$1+$1,$6,$7*
1,1,$1+$1,$8,$9*
0 Add four rect primitives between the rounded corners*
20,1,$1+$1,$2,$3,$4,$5,0*
20,1,$1+$1,$4,$5,$6,$7,0*
20,1,$1+$1,$6,$7,$8,$9,0*
20,1,$1+$1,$8,$9,$2,$3,0*%
G04 Aperture macros list end*
%TA.AperFunction,SMDPad,CuDef*%
%ADD10RoundRect,0.150000X-0.625000X0.150000X-0.625000X-0.150000X0.625000X-0.150000X0.625000X0.150000X0*%
%TD*%
%TA.AperFunction,SMDPad,CuDef*%
%ADD11RoundRect,0.250000X-0.650000X0.350000X-0.650000X-0.350000X0.650000X-0.350000X0.650000X0.350000X0*%
%TD*%
%TA.AperFunction,SMDPad,CuDef*%
%ADD12R,0.700000X0.700000*%
%TD*%
%TA.AperFunction,SMDPad,CuDef*%
%ADD13RoundRect,0.250000X-0.750000X-0.500000X0.750000X-0.500000X0.750000X0.500000X-0.750000X0.500000X0*%
%TD*%
%TA.AperFunction,SMDPad,CuDef*%
%ADD14RoundRect,0.150000X0.625000X-0.150000X0.625000X0.150000X-0.625000X0.150000X-0.625000X-0.150000X0*%
%TD*%
%TA.AperFunction,SMDPad,CuDef*%
%ADD15RoundRect,0.250000X0.650000X-0.350000X0.650000X0.350000X-0.650000X0.350000X-0.650000X-0.350000X0*%
%TD*%
%TA.AperFunction,SMDPad,CuDef*%
%ADD16RoundRect,0.140000X0.140000X0.170000X-0.140000X0.170000X-0.140000X-0.170000X0.140000X-0.170000X0*%
%TD*%
%TA.AperFunction,ViaPad*%
%ADD17C,0.600000*%
%TD*%
%TA.AperFunction,Conductor*%
%ADD18C,0.500000*%
%TD*%
G04 APERTURE END LIST*
D10*
%TO.P,J4,1,Pin_1*%
%TO.N,I2C1_SDA*%
X163275000Y-94800000D03*
%TO.P,J4,2,Pin_2*%
%TO.N,I2C1_SCL*%
X163275000Y-95800000D03*
%TO.P,J4,3,Pin_3*%
%TO.N,+3.3V*%
X163275000Y-96800000D03*
%TO.P,J4,4,Pin_4*%
%TO.N,GND*%
X163275000Y-97800000D03*
D11*
%TO.P,J4,MP*%
%TO.N,N/C*%
X165800000Y-93500000D03*
X165800000Y-99100000D03*
%TD*%
D12*
%TO.P,D4,1,DOUT*%
%TO.N,Net-(D4-DOUT)*%
X150685000Y-87250000D03*
%TO.P,D4,2,VSS*%
%TO.N,GND*%
X150685000Y-88350000D03*
%TO.P,D4,3,DIN*%
%TO.N,LED_DATA_IN*%
X152515000Y-88350000D03*
%TO.P,D4,4,VDD*%
%TO.N,+3.3V*%
X152515000Y-87250000D03*
%TD*%
D13*
%TO.P,SW3,1,1*%
%TO.N,+3.3V*%
X144450000Y-93800000D03*
X158750000Y-93800000D03*
%TO.P,SW3,2,2*%
%TO.N,MainBTN*%
X144450000Y-98800000D03*
X158750000Y-98800000D03*
%TD*%
D12*
%TO.P,D5,1,DOUT*%
%TO.N,unconnected-(D5-DOUT-Pad1)*%
X150670000Y-104250000D03*
%TO.P,D5,2,VSS*%
%TO.N,GND*%
X150670000Y-105350000D03*
%TO.P,D5,3,DIN*%
%TO.N,Net-(D4-DOUT)*%
X152500000Y-105350000D03*
%TO.P,D5,4,VDD*%
%TO.N,+3.3V*%
X152500000Y-104250000D03*
%TD*%
D14*
%TO.P,J3,1,Pin_1*%
%TO.N,I2C1_SDA*%
X139625000Y-98800000D03*
%TO.P,J3,2,Pin_2*%
%TO.N,I2C1_SCL*%
X139625000Y-97800000D03*
%TO.P,J3,3,Pin_3*%
%TO.N,MainBTN*%
X139625000Y-96800000D03*
%TO.P,J3,4,Pin_4*%
%TO.N,LED_DATA_IN*%
X139625000Y-95800000D03*
%TO.P,J3,5,Pin_5*%
%TO.N,+3.3V*%
X139625000Y-94800000D03*
%TO.P,J3,6,Pin_6*%
%TO.N,GND*%
X139625000Y-93800000D03*
D15*
%TO.P,J3,MP*%
%TO.N,N/C*%
X137100000Y-100100000D03*
X137100000Y-92500000D03*
%TD*%
D16*
%TO.P,C31,1*%
%TO.N,+3.3V*%
X152080000Y-85900000D03*
%TO.P,C31,2*%
%TO.N,GND*%
X151120000Y-85900000D03*
%TD*%
%TO.P,C32,1*%
%TO.N,+3.3V*%
X152080000Y-106700000D03*
%TO.P,C32,2*%
%TO.N,GND*%
X151120000Y-106700000D03*
%TD*%
D17*
%TO.N,GND*%
X143800000Y-103500000D03*
X157800000Y-100400000D03*
X160100000Y-103500000D03*
X141600000Y-106000000D03*
X143100000Y-86100000D03*
X137900000Y-105800000D03*
X139600000Y-102200000D03*
X158300000Y-85900000D03*
X146000000Y-106500000D03*
X165500000Y-104100000D03*
X158500000Y-105700000D03*
X145400000Y-87400000D03*
X135900000Y-102100000D03*
X152900000Y-103100000D03*
X136400000Y-86200000D03*
X154700000Y-86200000D03*
X149500000Y-105200000D03*
X163300000Y-106100000D03*
X161200000Y-89400000D03*
X155000000Y-103100000D03*
X164600000Y-88500000D03*
X162900000Y-101400000D03*
X160700000Y-87400000D03*
X139400000Y-89100000D03*
X159400000Y-90700000D03*
X157200000Y-88900000D03*
%TO.N,+3.3V*%
X149850000Y-89700000D03*
X151726511Y-87759732D03*
%TO.N,Net-(D4-DOUT)*%
X154000000Y-105300000D03*
X149100000Y-87300000D03*
%TO.N,I2C1_SDA*%
X141600000Y-98800000D03*
X161635662Y-94564338D03*
%TO.N,I2C1_SCL*%
X141700000Y-97800000D03*
X160705331Y-94694669D03*
%TD*%
D18*
%TO.N,GND*%
X146200000Y-106700000D02*
X146000000Y-106500000D01*
X151120000Y-85900000D02*
X146900000Y-85900000D01*
X149650000Y-105350000D02*
X149500000Y-105200000D01*
X146900000Y-85900000D02*
X145400000Y-87400000D01*
X151120000Y-106700000D02*
X146200000Y-106700000D01*
X150670000Y-105350000D02*
X149650000Y-105350000D01*
%TO.N,+3.3V*%
X148550000Y-89700000D02*
X149850000Y-89700000D01*
X158750000Y-92635000D02*
X153365000Y-87250000D01*
X152236243Y-87250000D02*
X152515000Y-87250000D01*
X152080000Y-86815000D02*
X152515000Y-87250000D01*
X163275000Y-96800000D02*
X161750000Y-96800000D01*
X153365000Y-87250000D02*
X152515000Y-87250000D01*
X161750000Y-98048292D02*
X161750000Y-96800000D01*
X158750000Y-93800000D02*
X158750000Y-92635000D01*
X155548292Y-104250000D02*
X161750000Y-98048292D01*
X152080000Y-106700000D02*
X152080000Y-106510318D01*
X139625000Y-94800000D02*
X143450000Y-94800000D01*
X144450000Y-93800000D02*
X148550000Y-89700000D01*
X161750000Y-96800000D02*
X158750000Y-93800000D01*
X151699000Y-104549000D02*
X151998000Y-104250000D01*
X152500000Y-104250000D02*
X155548292Y-104250000D01*
X151998000Y-104250000D02*
X152500000Y-104250000D01*
X152080000Y-85900000D02*
X152080000Y-86815000D01*
X151726511Y-87759732D02*
X152236243Y-87250000D01*
X151699000Y-106129318D02*
X151699000Y-104549000D01*
X152080000Y-106510318D02*
X151699000Y-106129318D01*
X143450000Y-94800000D02*
X144450000Y-93800000D01*
%TO.N,LED_DATA_IN*%
X145477265Y-95800000D02*
X152515000Y-88762265D01*
X139625000Y-95800000D02*
X145477265Y-95800000D01*
X152515000Y-88762265D02*
X152515000Y-88350000D01*
%TO.N,Net-(D4-DOUT)*%
X153950000Y-105350000D02*
X154000000Y-105300000D01*
X150635000Y-87300000D02*
X150685000Y-87250000D01*
X149100000Y-87300000D02*
X150635000Y-87300000D01*
X152500000Y-105350000D02*
X153950000Y-105350000D01*
%TO.N,I2C1_SDA*%
X161635662Y-94564338D02*
X163039338Y-94564338D01*
X139625000Y-98800000D02*
X141600000Y-98800000D01*
X163039338Y-94564338D02*
X163275000Y-94800000D01*
%TO.N,I2C1_SCL*%
X139625000Y-97800000D02*
X141700000Y-97800000D01*
X161810662Y-95800000D02*
X163275000Y-95800000D01*
X160705331Y-94694669D02*
X161810662Y-95800000D01*
%TO.N,MainBTN*%
X144450000Y-98800000D02*
X142450000Y-96800000D01*
X158750000Y-98800000D02*
X144450000Y-98800000D01*
X142450000Y-96800000D02*
X139625000Y-96800000D01*
%TD*%
%TA.AperFunction,Conductor*%
%TO.N,GND*%
G36*
X150341231Y-85320185D02*
G01*
X150386986Y-85372989D01*
X150396930Y-85442147D01*
X150390098Y-85466300D01*
X150390144Y-85466314D01*
X150388303Y-85472647D01*
X150387993Y-85473747D01*
X150387967Y-85473806D01*
X150342855Y-85629081D01*
X150342854Y-85629087D01*
X150341209Y-85649999D01*
X150341210Y-85650000D01*
X150996000Y-85650000D01*
X151063039Y-85669685D01*
X151108794Y-85722489D01*
X151120000Y-85774000D01*
X151120000Y-86026000D01*
X151100315Y-86093039D01*
X151047511Y-86138794D01*
X150996000Y-86150000D01*
X150341210Y-86150000D01*
X150342854Y-86170910D01*
X150364291Y-86244697D01*
X150364091Y-86314567D01*
X150326148Y-86373236D01*
X150262509Y-86402079D01*
X150258470Y-86402580D01*
X150227519Y-86405907D01*
X150092671Y-86456202D01*
X150092668Y-86456204D01*
X150001080Y-86524767D01*
X149935615Y-86549184D01*
X149926769Y-86549500D01*
X149404604Y-86549500D01*
X149357155Y-86540062D01*
X149333497Y-86530263D01*
X149333493Y-86530262D01*
X149333488Y-86530260D01*
X149178845Y-86499500D01*
X149178842Y-86499500D01*
X149021158Y-86499500D01*
X149021155Y-86499500D01*
X148866510Y-86530261D01*
X148866498Y-86530264D01*
X148720827Y-86590602D01*
X148720814Y-86590609D01*
X148589711Y-86678210D01*
X148589707Y-86678213D01*
X148478213Y-86789707D01*
X148478210Y-86789711D01*
X148390609Y-86920814D01*
X148390602Y-86920827D01*
X148330264Y-87066498D01*
X148330261Y-87066510D01*
X148299500Y-87221153D01*
X148299500Y-87378846D01*
X148330261Y-87533489D01*
X148330264Y-87533501D01*
X148390602Y-87679172D01*
X148390609Y-87679185D01*
X148478210Y-87810288D01*
X148478213Y-87810292D01*
X148589707Y-87921786D01*
X148589711Y-87921789D01*
X148720814Y-88009390D01*
X148720827Y-88009397D01*
X148820060Y-88050500D01*
X148866503Y-88069737D01*
X148988938Y-88094091D01*
X149021153Y-88100499D01*
X149021156Y-88100500D01*
X149021158Y-88100500D01*
X149178844Y-88100500D01*
X149178845Y-88100499D01*
X149255152Y-88085320D01*
X149333488Y-88069739D01*
X149333489Y-88069738D01*
X149333497Y-88069737D01*
X149357155Y-88059937D01*
X149404604Y-88050500D01*
X149734138Y-88050500D01*
X149801177Y-88070185D01*
X149821819Y-88086819D01*
X149835000Y-88100000D01*
X150275833Y-88100000D01*
X150283811Y-88100427D01*
X150283817Y-88100322D01*
X150287102Y-88100497D01*
X150287127Y-88100500D01*
X150561002Y-88100499D01*
X150628039Y-88120183D01*
X150673794Y-88172987D01*
X150685000Y-88224499D01*
X150685000Y-88350000D01*
X150811000Y-88350000D01*
X150878039Y-88369685D01*
X150923794Y-88422489D01*
X150935000Y-88474000D01*
X150935000Y-89229535D01*
X150926355Y-89258974D01*
X150919832Y-89288962D01*
X150916077Y-89293977D01*
X150915315Y-89296574D01*
X150898684Y-89317213D01*
X150829167Y-89386730D01*
X150788936Y-89426961D01*
X150727613Y-89460445D01*
X150657921Y-89455461D01*
X150601988Y-89413589D01*
X150586697Y-89386737D01*
X150559394Y-89320821D01*
X150559390Y-89320814D01*
X150471789Y-89189711D01*
X150471786Y-89189707D01*
X150471319Y-89189240D01*
X150471152Y-89188934D01*
X150467924Y-89185001D01*
X150468670Y-89184388D01*
X150437834Y-89127917D01*
X150435000Y-89101559D01*
X150435000Y-88600000D01*
X149835000Y-88600000D01*
X149835000Y-88747833D01*
X149837506Y-88771143D01*
X149837379Y-88771844D01*
X149837645Y-88772506D01*
X149831184Y-88806178D01*
X149825099Y-88839902D01*
X149824613Y-88840423D01*
X149824479Y-88841124D01*
X149800849Y-88865947D01*
X149777488Y-88891039D01*
X149776632Y-88891387D01*
X149776305Y-88891732D01*
X149769481Y-88894303D01*
X149743550Y-88904876D01*
X149740955Y-88905507D01*
X149616503Y-88930263D01*
X149584017Y-88943718D01*
X149574730Y-88945980D01*
X149565309Y-88945539D01*
X149545396Y-88949500D01*
X148476076Y-88949500D01*
X148447242Y-88955234D01*
X148447243Y-88955235D01*
X148331093Y-88978339D01*
X148331083Y-88978342D01*
X148251081Y-89011479D01*
X148251082Y-89011480D01*
X148194505Y-89034915D01*
X148132835Y-89076121D01*
X148129709Y-89078211D01*
X148112372Y-89089795D01*
X148071585Y-89117047D01*
X148071581Y-89117050D01*
X144675449Y-92513181D01*
X144614126Y-92546666D01*
X144587768Y-92549500D01*
X143649998Y-92549500D01*
X143649980Y-92549501D01*
X143547203Y-92560000D01*
X143547200Y-92560001D01*
X143380668Y-92615185D01*
X143380663Y-92615187D01*
X143231342Y-92707289D01*
X143107289Y-92831342D01*
X143015187Y-92980663D01*
X143015185Y-92980668D01*
X143007818Y-93002900D01*
X142960001Y-93147203D01*
X142960001Y-93147204D01*
X142960000Y-93147204D01*
X142949500Y-93249983D01*
X142949500Y-93249991D01*
X142949500Y-93600500D01*
X142949501Y-93925500D01*
X142929817Y-93992539D01*
X142877013Y-94038294D01*
X142825501Y-94049500D01*
X140532328Y-94049500D01*
X140497733Y-94044576D01*
X140352573Y-94002402D01*
X140352567Y-94002401D01*
X140315701Y-93999500D01*
X140315694Y-93999500D01*
X138934306Y-93999500D01*
X138934298Y-93999500D01*
X138897432Y-94002401D01*
X138897426Y-94002402D01*
X138750545Y-94045076D01*
X138715950Y-94050000D01*
X138352705Y-94050000D01*
X138352704Y-94050001D01*
X138352899Y-94052488D01*
X138352900Y-94052494D01*
X138398716Y-94210193D01*
X138398717Y-94210196D01*
X138414207Y-94236388D01*
X138431389Y-94304112D01*
X138414207Y-94362627D01*
X138398258Y-94389595D01*
X138398254Y-94389605D01*
X138352402Y-94547426D01*
X138352401Y-94547432D01*
X138349500Y-94584298D01*
X138349500Y-95015701D01*
X138352401Y-95052567D01*
X138352402Y-95052573D01*
X138398253Y-95210393D01*
X138413918Y-95236881D01*
X138431098Y-95304606D01*
X138413918Y-95363119D01*
X138398253Y-95389606D01*
X138352402Y-95547426D01*
X138352401Y-95547432D01*
X138349500Y-95584298D01*
X138349500Y-96015701D01*
X138352401Y-96052567D01*
X138352402Y-96052573D01*
X138398253Y-96210393D01*
X138413918Y-96236881D01*
X138431098Y-96304606D01*
X138413918Y-96363119D01*
X138398253Y-96389606D01*
X138352402Y-96547426D01*
X138352401Y-96547432D01*
X138349500Y-96584298D01*
X138349500Y-97015701D01*
X138352401Y-97052567D01*
X138352402Y-97052573D01*
X138398253Y-97210393D01*
X138413918Y-97236881D01*
X138431098Y-97304606D01*
X138413918Y-97363118D01*
X138411121Y-97367847D01*
X138398253Y-97389606D01*
X138352402Y-97547426D01*
X138352401Y-97547432D01*
X138349500Y-97584298D01*
X138349500Y-98015701D01*
X138352401Y-98052567D01*
X138352402Y-98052573D01*
X138398253Y-98210393D01*
X138413918Y-98236881D01*
X138431098Y-98304606D01*
X138413918Y-98363119D01*
X138398253Y-98389606D01*
X138352402Y-98547426D01*
X138352401Y-98547432D01*
X138349500Y-98584298D01*
X138349500Y-99015818D01*
X138329815Y-99082857D01*
X138277011Y-99128612D01*
X138207853Y-99138556D01*
X138160404Y-99121357D01*
X138069340Y-99065190D01*
X138069334Y-99065186D01*
X137902797Y-99010001D01*
X137902795Y-99010000D01*
X137800010Y-98999500D01*
X136399998Y-98999500D01*
X136399981Y-98999501D01*
X136297203Y-99010000D01*
X136297200Y-99010001D01*
X136130668Y-99065185D01*
X136130663Y-99065187D01*
X135981342Y-99157289D01*
X135857289Y-99281342D01*
X135765187Y-99430663D01*
X135765186Y-99430666D01*
X135710001Y-99597203D01*
X135710001Y-99597204D01*
X135710000Y-99597204D01*
X135699500Y-99699983D01*
X135699500Y-100500001D01*
X135699501Y-100500019D01*
X135710000Y-100602796D01*
X135710001Y-100602799D01*
X135742735Y-100701583D01*
X135765186Y-100769334D01*
X135857288Y-100918656D01*
X135981344Y-101042712D01*
X136130666Y-101134814D01*
X136297203Y-101189999D01*
X136399991Y-101200500D01*
X137800008Y-101200499D01*
X137902797Y-101189999D01*
X138069334Y-101134814D01*
X138218656Y-101042712D01*
X138342712Y-100918656D01*
X138434814Y-100769334D01*
X138489999Y-100602797D01*
X138500500Y-100500009D01*
X138500499Y-99699992D01*
X138493971Y-99636093D01*
X138506740Y-99567404D01*
X138554620Y-99516519D01*
X138622410Y-99499598D01*
X138680449Y-99516762D01*
X138727068Y-99544331D01*
X138739602Y-99551744D01*
X138752269Y-99555424D01*
X138897426Y-99597597D01*
X138897429Y-99597597D01*
X138897431Y-99597598D01*
X138934306Y-99600500D01*
X138934314Y-99600500D01*
X140315686Y-99600500D01*
X140315694Y-99600500D01*
X140352569Y-99597598D01*
X140352571Y-99597597D01*
X140352573Y-99597597D01*
X140497733Y-99555424D01*
X140532328Y-99550500D01*
X141295396Y-99550500D01*
X141342844Y-99559937D01*
X141366503Y-99569737D01*
X141366508Y-99569738D01*
X141366511Y-99569739D01*
X141521153Y-99600499D01*
X141521156Y-99600500D01*
X141521158Y-99600500D01*
X141678844Y-99600500D01*
X141678845Y-99600499D01*
X141833497Y-99569737D01*
X141979179Y-99509394D01*
X142110289Y-99421789D01*
X142221789Y-99310289D01*
X142309394Y-99179179D01*
X142318462Y-99157288D01*
X142333344Y-99121357D01*
X142369737Y-99033497D01*
X142400500Y-98878842D01*
X142400500Y-98721158D01*
X142400500Y-98721155D01*
X142400499Y-98721153D01*
X142376400Y-98599999D01*
X142369737Y-98566503D01*
X142364314Y-98553411D01*
X142311238Y-98425272D01*
X142303769Y-98355803D01*
X142322694Y-98308933D01*
X142409394Y-98179179D01*
X142443354Y-98097189D01*
X142487192Y-98042789D01*
X142553486Y-98020723D01*
X142621186Y-98038001D01*
X142645595Y-98056963D01*
X142913181Y-98324548D01*
X142946666Y-98385871D01*
X142949500Y-98412229D01*
X142949500Y-99350001D01*
X142949501Y-99350019D01*
X142960000Y-99452796D01*
X142960001Y-99452799D01*
X143009706Y-99602796D01*
X143015186Y-99619334D01*
X143107288Y-99768656D01*
X143231344Y-99892712D01*
X143380666Y-99984814D01*
X143547203Y-100039999D01*
X143649991Y-100050500D01*
X145250008Y-100050499D01*
X145352797Y-100039999D01*
X145519334Y-99984814D01*
X145668656Y-99892712D01*
X145792712Y-99768656D01*
X145884814Y-99619334D01*
X145884815Y-99619331D01*
X145888605Y-99613187D01*
X145890399Y-99614293D01*
X145929687Y-99569663D01*
X145995908Y-99550500D01*
X150810678Y-99550500D01*
X150877717Y-99570185D01*
X150923472Y-99622989D01*
X150933416Y-99692147D01*
X150904391Y-99755703D01*
X150883564Y-99774818D01*
X150785352Y-99846173D01*
X150646174Y-99985351D01*
X150646174Y-99985352D01*
X150646172Y-99985354D01*
X150606471Y-100039998D01*
X150530476Y-100144594D01*
X150441117Y-100319970D01*
X150380290Y-100507173D01*
X150349500Y-100701577D01*
X150349500Y-100898422D01*
X150380290Y-101092826D01*
X150441117Y-101280029D01*
X150530476Y-101455405D01*
X150646172Y-101614646D01*
X150785354Y-101753828D01*
X150944595Y-101869524D01*
X151027455Y-101911743D01*
X151119970Y-101958882D01*
X151119972Y-101958882D01*
X151119975Y-101958884D01*
X151220317Y-101991487D01*
X151307173Y-102019709D01*
X151501578Y-102050500D01*
X151501583Y-102050500D01*
X151698422Y-102050500D01*
X151892826Y-102019709D01*
X152080025Y-101958884D01*
X152255405Y-101869524D01*
X152414646Y-101753828D01*
X152553828Y-101614646D01*
X152669524Y-101455405D01*
X152758884Y-101280025D01*
X152819709Y-101092826D01*
X152827647Y-101042710D01*
X152850500Y-100898422D01*
X152850500Y-100701577D01*
X152819709Y-100507173D01*
X152758882Y-100319970D01*
X152669523Y-100144594D01*
X152553828Y-99985354D01*
X152414646Y-99846172D01*
X152316435Y-99774817D01*
X152273771Y-99719487D01*
X152267792Y-99649874D01*
X152300398Y-99588079D01*
X152361237Y-99553722D01*
X152389322Y-99550500D01*
X157204092Y-99550500D01*
X157271131Y-99570185D01*
X157309636Y-99614271D01*
X157311395Y-99613187D01*
X157315185Y-99619331D01*
X157315186Y-99619334D01*
X157407288Y-99768656D01*
X157531344Y-99892712D01*
X157680666Y-99984814D01*
X157847203Y-100039999D01*
X157949991Y-100050500D01*
X158387063Y-100050499D01*
X158454101Y-100070183D01*
X158499856Y-100122987D01*
X158509800Y-100192146D01*
X158480775Y-100255702D01*
X158474743Y-100262180D01*
X155273743Y-103463181D01*
X155212420Y-103496666D01*
X155186062Y-103499500D01*
X153191439Y-103499500D01*
X153124400Y-103479815D01*
X153117128Y-103474767D01*
X153092331Y-103456204D01*
X153092328Y-103456202D01*
X152957482Y-103405908D01*
X152957483Y-103405908D01*
X152897883Y-103399501D01*
X152897881Y-103399500D01*
X152897873Y-103399500D01*
X152897864Y-103399500D01*
X152102129Y-103399500D01*
X152102123Y-103399501D01*
X152042516Y-103405908D01*
X151907671Y-103456202D01*
X151907668Y-103456204D01*
X151845487Y-103502753D01*
X151795368Y-103525103D01*
X151779092Y-103528340D01*
X151779086Y-103528342D01*
X151642508Y-103584914D01*
X151642496Y-103584921D01*
X151593269Y-103617813D01*
X151593261Y-103617819D01*
X151584790Y-103623478D01*
X151518111Y-103644349D01*
X151450732Y-103625858D01*
X151416643Y-103594680D01*
X151377547Y-103542455D01*
X151377544Y-103542452D01*
X151262335Y-103456206D01*
X151262328Y-103456202D01*
X151127482Y-103405908D01*
X151127483Y-103405908D01*
X151067883Y-103399501D01*
X151067881Y-103399500D01*
X151067873Y-103399500D01*
X151067864Y-103399500D01*
X150272129Y-103399500D01*
X150272123Y-103399501D01*
X150212516Y-103405908D01*
X150077671Y-103456202D01*
X150077664Y-103456206D01*
X149962455Y-103542452D01*
X149962452Y-103542455D01*
X149876206Y-103657664D01*
X149876202Y-103657671D01*
X149825908Y-103792517D01*
X149819501Y-103852116D01*
X149819500Y-103852135D01*
X149819500Y-104647870D01*
X149819501Y-104647876D01*
X149825909Y-104707484D01*
X149844519Y-104757382D01*
X149849503Y-104827074D01*
X149844520Y-104844046D01*
X149826402Y-104892623D01*
X149826401Y-104892627D01*
X149820000Y-104952155D01*
X149820000Y-105100000D01*
X150260833Y-105100000D01*
X150268811Y-105100427D01*
X150268817Y-105100322D01*
X150272102Y-105100497D01*
X150272127Y-105100500D01*
X150546002Y-105100499D01*
X150613039Y-105120183D01*
X150658794Y-105172987D01*
X150670000Y-105224499D01*
X150670000Y-105476000D01*
X150650315Y-105543039D01*
X150597511Y-105588794D01*
X150546000Y-105600000D01*
X149820000Y-105600000D01*
X149820000Y-105747844D01*
X149826401Y-105807372D01*
X149826403Y-105807379D01*
X149876645Y-105942086D01*
X149876649Y-105942093D01*
X149962809Y-106057187D01*
X149962812Y-106057190D01*
X150077906Y-106143350D01*
X150077913Y-106143354D01*
X150212620Y-106193596D01*
X150212627Y-106193598D01*
X150258158Y-106198494D01*
X150322709Y-106225232D01*
X150362557Y-106282625D01*
X150365050Y-106352450D01*
X150363978Y-106356378D01*
X150342855Y-106429081D01*
X150342854Y-106429087D01*
X150341209Y-106449999D01*
X150341210Y-106450000D01*
X150944375Y-106450000D01*
X150951990Y-106452236D01*
X150959827Y-106450966D01*
X150985041Y-106461941D01*
X151011414Y-106469685D01*
X151018242Y-106476392D01*
X151023891Y-106478851D01*
X151047476Y-106505108D01*
X151066675Y-106533841D01*
X151066813Y-106534047D01*
X151099102Y-106582372D01*
X151119980Y-106649048D01*
X151120000Y-106651262D01*
X151120000Y-106826000D01*
X151100315Y-106893039D01*
X151047511Y-106938794D01*
X150996000Y-106950000D01*
X150341210Y-106950000D01*
X150342854Y-106970910D01*
X150387969Y-107126198D01*
X150387993Y-107126253D01*
X150387998Y-107126299D01*
X150390145Y-107133687D01*
X150388953Y-107134033D01*
X150396553Y-107195596D01*
X150366264Y-107258559D01*
X150306742Y-107295151D01*
X150274192Y-107299500D01*
X135424500Y-107299500D01*
X135357461Y-107279815D01*
X135311706Y-107227011D01*
X135300500Y-107175500D01*
X135300500Y-92099983D01*
X135699500Y-92099983D01*
X135699500Y-92900001D01*
X135699501Y-92900019D01*
X135710000Y-93002796D01*
X135710001Y-93002799D01*
X135757852Y-93147203D01*
X135765186Y-93169334D01*
X135857288Y-93318656D01*
X135981344Y-93442712D01*
X136130666Y-93534814D01*
X136297203Y-93589999D01*
X136399991Y-93600500D01*
X137800008Y-93600499D01*
X137902797Y-93589999D01*
X138069334Y-93534814D01*
X138160542Y-93478556D01*
X138227933Y-93460116D01*
X138294597Y-93481038D01*
X138339366Y-93534680D01*
X138339547Y-93535766D01*
X138352705Y-93550000D01*
X139375000Y-93550000D01*
X139875000Y-93550000D01*
X140897295Y-93550000D01*
X140897295Y-93549998D01*
X140897100Y-93547513D01*
X140851281Y-93389801D01*
X140767685Y-93248447D01*
X140767678Y-93248438D01*
X140651561Y-93132321D01*
X140651552Y-93132314D01*
X140510196Y-93048717D01*
X140510193Y-93048716D01*
X140352495Y-93002900D01*
X140352489Y-93002899D01*
X140315649Y-93000000D01*
X139875000Y-93000000D01*
X139875000Y-93550000D01*
X139375000Y-93550000D01*
X139375000Y-93000000D01*
X138934350Y-93000000D01*
X138897510Y-93002899D01*
X138897504Y-93002900D01*
X138739806Y-93048716D01*
X138739799Y-93048719D01*
X138680387Y-93083855D01*
X138612663Y-93101038D01*
X138546401Y-93078878D01*
X138502638Y-93024411D01*
X138493909Y-92964520D01*
X138500499Y-92900015D01*
X138500500Y-92900009D01*
X138500499Y-92099992D01*
X138489999Y-91997203D01*
X138434814Y-91830666D01*
X138342712Y-91681344D01*
X138218656Y-91557288D01*
X138069334Y-91465186D01*
X137902797Y-91410001D01*
X137902795Y-91410000D01*
X137800010Y-91399500D01*
X136399998Y-91399500D01*
X136399981Y-91399501D01*
X136297203Y-91410000D01*
X136297200Y-91410001D01*
X136130668Y-91465185D01*
X136130663Y-91465187D01*
X135981342Y-91557289D01*
X135857289Y-91681342D01*
X135765187Y-91830663D01*
X135765186Y-91830666D01*
X135710001Y-91997203D01*
X135710001Y-91997204D01*
X135710000Y-91997204D01*
X135699500Y-92099983D01*
X135300500Y-92099983D01*
X135300500Y-85424500D01*
X135320185Y-85357461D01*
X135372989Y-85311706D01*
X135424500Y-85300500D01*
X142784108Y-85300500D01*
X150274192Y-85300500D01*
X150341231Y-85320185D01*
G37*
%TD.AperFunction*%
%TA.AperFunction,Conductor*%
G36*
X167542539Y-85320185D02*
G01*
X167588294Y-85372989D01*
X167599500Y-85424500D01*
X167599500Y-107175500D01*
X167579815Y-107242539D01*
X167527011Y-107288294D01*
X167475500Y-107299500D01*
X152926357Y-107299500D01*
X152859318Y-107279815D01*
X152813563Y-107227011D01*
X152803619Y-107157853D01*
X152810390Y-107133908D01*
X152810318Y-107133887D01*
X152857642Y-106970997D01*
X152857643Y-106970991D01*
X152860500Y-106934690D01*
X152860500Y-106465310D01*
X152857643Y-106429007D01*
X152835760Y-106353685D01*
X152835959Y-106283816D01*
X152873901Y-106225146D01*
X152937539Y-106196302D01*
X152941578Y-106195800D01*
X152957483Y-106194091D01*
X153092331Y-106143796D01*
X153117128Y-106125233D01*
X153182592Y-106100816D01*
X153191439Y-106100500D01*
X154078844Y-106100500D01*
X154078845Y-106100499D01*
X154233497Y-106069737D01*
X154379179Y-106009394D01*
X154510289Y-105921789D01*
X154621789Y-105810289D01*
X154709394Y-105679179D01*
X154769737Y-105533497D01*
X154800500Y-105378842D01*
X154800500Y-105221158D01*
X154800500Y-105221155D01*
X154800499Y-105221153D01*
X154786086Y-105148691D01*
X154792313Y-105079100D01*
X154835176Y-105023922D01*
X154901066Y-105000678D01*
X154907703Y-105000500D01*
X155622212Y-105000500D01*
X155719754Y-104981096D01*
X155767205Y-104971658D01*
X155903787Y-104915084D01*
X155953021Y-104882186D01*
X156026708Y-104832952D01*
X162274853Y-98584805D01*
X162336176Y-98551321D01*
X162397129Y-98553411D01*
X162547504Y-98597099D01*
X162547510Y-98597100D01*
X162584350Y-98599999D01*
X162584366Y-98600000D01*
X163025000Y-98600000D01*
X163025000Y-98050000D01*
X163525000Y-98050000D01*
X163525000Y-98600000D01*
X163965634Y-98600000D01*
X163965649Y-98599999D01*
X164002489Y-98597100D01*
X164002495Y-98597099D01*
X164160193Y-98551283D01*
X164160198Y-98551281D01*
X164219610Y-98516145D01*
X164287333Y-98498961D01*
X164353596Y-98521120D01*
X164397360Y-98575586D01*
X164406090Y-98635477D01*
X164399500Y-98699979D01*
X164399500Y-99500001D01*
X164399501Y-99500019D01*
X164410000Y-99602796D01*
X164410001Y-99602799D01*
X164465185Y-99769331D01*
X164465187Y-99769336D01*
X164500069Y-99825888D01*
X164557288Y-99918656D01*
X164681344Y-100042712D01*
X164830666Y-100134814D01*
X164997203Y-100189999D01*
X165099991Y-100200500D01*
X166500008Y-100200499D01*
X166602797Y-100189999D01*
X166769334Y-100134814D01*
X166918656Y-100042712D01*
X167042712Y-99918656D01*
X167134814Y-99769334D01*
X167189999Y-99602797D01*
X167200500Y-99500009D01*
X167200499Y-98699992D01*
X167189999Y-98597203D01*
X167134814Y-98430666D01*
X167042712Y-98281344D01*
X166918656Y-98157288D01*
X166769334Y-98065186D01*
X166602797Y-98010001D01*
X166602795Y-98010000D01*
X166500010Y-97999500D01*
X165099998Y-97999500D01*
X165099981Y-97999501D01*
X164997203Y-98010000D01*
X164997200Y-98010001D01*
X164830668Y-98065185D01*
X164830659Y-98065189D01*
X164739457Y-98121443D01*
X164672064Y-98139883D01*
X164605401Y-98118960D01*
X164560632Y-98065318D01*
X164560450Y-98064231D01*
X164547295Y-98050000D01*
X163525000Y-98050000D01*
X163025000Y-98050000D01*
X163025000Y-97924000D01*
X163044685Y-97856961D01*
X163097489Y-97811206D01*
X163149000Y-97800000D01*
X163275000Y-97800000D01*
X163275000Y-97724500D01*
X163294685Y-97657461D01*
X163347489Y-97611706D01*
X163399000Y-97600500D01*
X163965686Y-97600500D01*
X163965694Y-97600500D01*
X164002569Y-97597598D01*
X164002571Y-97597597D01*
X164002573Y-97597597D01*
X164149455Y-97554924D01*
X164184050Y-97550000D01*
X164547295Y-97550000D01*
X164547295Y-97549998D01*
X164547100Y-97547511D01*
X164547099Y-97547505D01*
X164501283Y-97389806D01*
X164501282Y-97389803D01*
X164485792Y-97363610D01*
X164468611Y-97295886D01*
X164485793Y-97237369D01*
X164501744Y-97210398D01*
X164535505Y-97094191D01*
X164547597Y-97052573D01*
X164547598Y-97052567D01*
X164550499Y-97015701D01*
X164550500Y-97015694D01*
X164550500Y-96584306D01*
X164547598Y-96547431D01*
X164540110Y-96521659D01*
X164501745Y-96389606D01*
X164501744Y-96389602D01*
X164501742Y-96389598D01*
X164486084Y-96363122D01*
X164468900Y-96295399D01*
X164486084Y-96236878D01*
X164501742Y-96210401D01*
X164501744Y-96210398D01*
X164547598Y-96052569D01*
X164550500Y-96015694D01*
X164550500Y-95584306D01*
X164547598Y-95547431D01*
X164501744Y-95389602D01*
X164486084Y-95363122D01*
X164468900Y-95295399D01*
X164486084Y-95236878D01*
X164501742Y-95210401D01*
X164501744Y-95210398D01*
X164547598Y-95052569D01*
X164550500Y-95015694D01*
X164550500Y-94584306D01*
X164550500Y-94584181D01*
X164570185Y-94517142D01*
X164622989Y-94471387D01*
X164692147Y-94461443D01*
X164739594Y-94478641D01*
X164830666Y-94534814D01*
X164997203Y-94589999D01*
X165099991Y-94600500D01*
X166500008Y-94600499D01*
X166602797Y-94589999D01*
X166769334Y-94534814D01*
X166918656Y-94442712D01*
X167042712Y-94318656D01*
X167134814Y-94169334D01*
X167189999Y-94002797D01*
X167200500Y-93900009D01*
X167200499Y-93099992D01*
X167195261Y-93048719D01*
X167189999Y-92997203D01*
X167189998Y-92997200D01*
X167177301Y-92958884D01*
X167134814Y-92830666D01*
X167042712Y-92681344D01*
X166918656Y-92557288D01*
X166769334Y-92465186D01*
X166602797Y-92410001D01*
X166602795Y-92410000D01*
X166500010Y-92399500D01*
X165099998Y-92399500D01*
X165099981Y-92399501D01*
X164997203Y-92410000D01*
X164997200Y-92410001D01*
X164830668Y-92465185D01*
X164830663Y-92465187D01*
X164681342Y-92557289D01*
X164557289Y-92681342D01*
X164465187Y-92830663D01*
X164465186Y-92830666D01*
X164410001Y-92997203D01*
X164410001Y-92997204D01*
X164410000Y-92997204D01*
X164399500Y-93099983D01*
X164399500Y-93900001D01*
X164399501Y-93900017D01*
X164406028Y-93963903D01*
X164393258Y-94032596D01*
X164345378Y-94083481D01*
X164277588Y-94100401D01*
X164219550Y-94083238D01*
X164167564Y-94052494D01*
X164160398Y-94048256D01*
X164160396Y-94048255D01*
X164160394Y-94048254D01*
X164002573Y-94002402D01*
X164002567Y-94002401D01*
X163965701Y-93999500D01*
X163965694Y-93999500D01*
X163582478Y-93999500D01*
X163515439Y-93979815D01*
X163513588Y-93978602D01*
X163433263Y-93924931D01*
X163433263Y-93924932D01*
X163394833Y-93899254D01*
X163394830Y-93899252D01*
X163394829Y-93899252D01*
X163258255Y-93842681D01*
X163258245Y-93842678D01*
X163113258Y-93813838D01*
X163113256Y-93813838D01*
X161940266Y-93813838D01*
X161892817Y-93804400D01*
X161869159Y-93794601D01*
X161869155Y-93794600D01*
X161869150Y-93794598D01*
X161714507Y-93763838D01*
X161714504Y-93763838D01*
X161556820Y-93763838D01*
X161556817Y-93763838D01*
X161402172Y-93794599D01*
X161402160Y-93794602D01*
X161256489Y-93854940D01*
X161256476Y-93854947D01*
X161125370Y-93942550D01*
X161058692Y-93963428D01*
X161009027Y-93954009D01*
X160938829Y-93924932D01*
X160938819Y-93924929D01*
X160784176Y-93894169D01*
X160784173Y-93894169D01*
X160626489Y-93894169D01*
X160626486Y-93894169D01*
X160471841Y-93924930D01*
X160471834Y-93924932D01*
X160421950Y-93945594D01*
X160352481Y-93953061D01*
X160290002Y-93921786D01*
X160254350Y-93861696D01*
X160250499Y-93831032D01*
X160250499Y-93249998D01*
X160250498Y-93249981D01*
X160239999Y-93147203D01*
X160239998Y-93147200D01*
X160224351Y-93099980D01*
X160184814Y-92980666D01*
X160092712Y-92831344D01*
X159968656Y-92707288D01*
X159819334Y-92615186D01*
X159652797Y-92560001D01*
X159652795Y-92560000D01*
X159588260Y-92553407D01*
X159523569Y-92527010D01*
X159483418Y-92469829D01*
X159479250Y-92454254D01*
X159471658Y-92416087D01*
X159464788Y-92399501D01*
X159415086Y-92279509D01*
X159415085Y-92279507D01*
X159382186Y-92230270D01*
X159382185Y-92230268D01*
X159332956Y-92156589D01*
X159332952Y-92156584D01*
X153843421Y-86667052D01*
X153843414Y-86667046D01*
X153769729Y-86617812D01*
X153769729Y-86617813D01*
X153720491Y-86584913D01*
X153583917Y-86528343D01*
X153583907Y-86528340D01*
X153438920Y-86499500D01*
X153438918Y-86499500D01*
X153206439Y-86499500D01*
X153139400Y-86479815D01*
X153132128Y-86474767D01*
X153107331Y-86456204D01*
X153107328Y-86456202D01*
X152972482Y-86405908D01*
X152972484Y-86405908D01*
X152942034Y-86402635D01*
X152877483Y-86375897D01*
X152837635Y-86318504D01*
X152835142Y-86248679D01*
X152836214Y-86244750D01*
X152857643Y-86170993D01*
X152860500Y-86134690D01*
X152860500Y-85665310D01*
X152857643Y-85629007D01*
X152857642Y-85629002D01*
X152810318Y-85466113D01*
X152811568Y-85465749D01*
X152803996Y-85404403D01*
X152834286Y-85341441D01*
X152893807Y-85304848D01*
X152926357Y-85300500D01*
X167475500Y-85300500D01*
X167542539Y-85320185D01*
G37*
%TD.AperFunction*%
%TD*%
M02*
