M48
; DRILL file {KiCad 9.0.4} date 2025-12-18T13:03:48+0100
; FORMAT={-:-/ absolute / inch / decimal}
; #@! TF.CreationDate,2025-12-18T13:03:48+01:00
; #@! TF.GenerationSoftware,Kicad,Pcbnew,9.0.4
; #@! TF.FileFunction,Plated,1,2,PTH
FMAT,2
INCH
; #@! TA.AperFunction,Plated,PTH,ViaDrill
T1C0.0118
%
G90
G05
T1
X5.3504Y-4.0197
X5.3701Y-3.3937
X5.4291Y-4.1654
X5.4882Y-3.5079
X5.4961Y-4.0236
X5.5748Y-3.8898
X5.5748Y-4.1732
X5.5787Y-3.8504
X5.6339Y-3.3898
X5.6614Y-4.0748
X5.7244Y-3.4409
X5.748Y-4.1929
X5.8701Y-3.437
X5.8858Y-4.1417
X5.8996Y-3.5315
X5.9735Y-3.4551
X6.0197Y-4.0591
X6.063Y-4.1457
X6.0906Y-3.3937
X6.1024Y-4.0591
X6.189Y-3.5
X6.2126Y-3.9528
X6.2323Y-3.3819
X6.2402Y-4.1614
X6.2756Y-3.5709
X6.3031Y-4.0748
X6.3268Y-3.4409
X6.327Y-3.7281
X6.3465Y-3.5197
X6.3636Y-3.723
X6.4134Y-3.9921
X6.4291Y-4.1772
X6.4803Y-3.4843
X6.5157Y-4.0984
M30
