%TF.GenerationSoftware,KiCad,Pcbnew,9.0.4*%
%TF.CreationDate,2025-12-18T13:03:23+01:00*%
%TF.ProjectId,Cansat_PCB_IHM,43616e73-6174-45f5-9043-425f49484d2e,rev?*%
%TF.SameCoordinates,Original*%
%TF.FileFunction,Copper,L2,Bot*%
%TF.FilePolarity,Positive*%
%FSLAX46Y46*%
G04 Gerber Fmt 4.6, Leading zero omitted, Abs format (unit mm)*
G04 Created by KiCad (PCBNEW 9.0.4) date 2025-12-18 13:03:23*
%MOMM*%
%LPD*%
G01*
G04 APERTURE LIST*
%TA.AperFunction,ViaPad*%
%ADD10C,0.600000*%
%TD*%
%TA.AperFunction,Conductor*%
%ADD11C,0.500000*%
%TD*%
G04 APERTURE END LIST*
D10*
%TO.N,GND*%
X143800000Y-103500000D03*
X157800000Y-100400000D03*
X160100000Y-103500000D03*
X141600000Y-106000000D03*
X143100000Y-86100000D03*
X137900000Y-105800000D03*
X139600000Y-102200000D03*
X158300000Y-85900000D03*
X146000000Y-106500000D03*
X165500000Y-104100000D03*
X158500000Y-105700000D03*
X145400000Y-87400000D03*
X135900000Y-102100000D03*
X152900000Y-103100000D03*
X136400000Y-86200000D03*
X154700000Y-86200000D03*
X149500000Y-105200000D03*
X163300000Y-106100000D03*
X161200000Y-89400000D03*
X155000000Y-103100000D03*
X164600000Y-88500000D03*
X162900000Y-101400000D03*
X160700000Y-87400000D03*
X139400000Y-89100000D03*
X159400000Y-90700000D03*
X157200000Y-88900000D03*
%TO.N,+3.3V*%
X149850000Y-89700000D03*
X151726511Y-87759732D03*
%TO.N,Net-(D4-DOUT)*%
X154000000Y-105300000D03*
X149100000Y-87300000D03*
%TO.N,I2C1_SDA*%
X141600000Y-98800000D03*
X161635662Y-94564338D03*
%TO.N,I2C1_SCL*%
X141700000Y-97800000D03*
X160705331Y-94694669D03*
%TD*%
D11*
%TO.N,+3.3V*%
X149850000Y-89636243D02*
X151726511Y-87759732D01*
X149850000Y-89700000D02*
X149850000Y-89636243D01*
%TO.N,Net-(D4-DOUT)*%
X149100000Y-91422735D02*
X149100000Y-87300000D01*
X154000000Y-96322735D02*
X149100000Y-91422735D01*
X154000000Y-105300000D02*
X154000000Y-96322735D01*
%TO.N,I2C1_SDA*%
X161635662Y-98726413D02*
X161635662Y-94564338D01*
X141600000Y-98800000D02*
X148851000Y-106051000D01*
X148851000Y-106051000D02*
X154311075Y-106051000D01*
X154311075Y-106051000D02*
X161635662Y-98726413D01*
%TO.N,I2C1_SCL*%
X148788925Y-86549000D02*
X152559662Y-86549000D01*
X141700000Y-93637925D02*
X148788925Y-86549000D01*
X152559662Y-86549000D02*
X160705331Y-94694669D01*
X141700000Y-97800000D02*
X141700000Y-93637925D01*
%TD*%
%TA.AperFunction,Conductor*%
%TO.N,GND*%
G36*
X148468834Y-87750130D02*
G01*
X148524767Y-87792002D01*
X148549184Y-87857466D01*
X148549500Y-87866312D01*
X148549500Y-91350261D01*
X148549500Y-91495209D01*
X148584833Y-91627074D01*
X148587016Y-91635220D01*
X148659489Y-91760748D01*
X148659491Y-91760751D01*
X153413181Y-96514441D01*
X153446666Y-96575764D01*
X153449500Y-96602122D01*
X153449500Y-105021637D01*
X153441834Y-105060179D01*
X153442527Y-105060365D01*
X153399500Y-105220943D01*
X153399500Y-105376500D01*
X153379815Y-105443539D01*
X153327011Y-105489294D01*
X153275500Y-105500500D01*
X149130386Y-105500500D01*
X149063347Y-105480815D01*
X149042705Y-105464181D01*
X144362917Y-100784392D01*
X144280102Y-100701577D01*
X150349500Y-100701577D01*
X150349500Y-100898422D01*
X150380290Y-101092826D01*
X150441117Y-101280029D01*
X150530476Y-101455405D01*
X150646172Y-101614646D01*
X150785354Y-101753828D01*
X150944595Y-101869524D01*
X151027455Y-101911743D01*
X151119970Y-101958882D01*
X151119972Y-101958882D01*
X151119975Y-101958884D01*
X151220317Y-101991487D01*
X151307173Y-102019709D01*
X151501578Y-102050500D01*
X151501583Y-102050500D01*
X151698422Y-102050500D01*
X151892826Y-102019709D01*
X152080025Y-101958884D01*
X152255405Y-101869524D01*
X152414646Y-101753828D01*
X152553828Y-101614646D01*
X152669524Y-101455405D01*
X152758884Y-101280025D01*
X152819709Y-101092826D01*
X152850500Y-100898422D01*
X152850500Y-100701577D01*
X152819709Y-100507173D01*
X152758882Y-100319970D01*
X152669523Y-100144594D01*
X152553828Y-99985354D01*
X152414646Y-99846172D01*
X152255405Y-99730476D01*
X152080029Y-99641117D01*
X151892826Y-99580290D01*
X151698422Y-99549500D01*
X151698417Y-99549500D01*
X151501583Y-99549500D01*
X151501578Y-99549500D01*
X151307173Y-99580290D01*
X151119970Y-99641117D01*
X150944594Y-99730476D01*
X150853741Y-99796485D01*
X150785354Y-99846172D01*
X150785352Y-99846174D01*
X150785351Y-99846174D01*
X150646174Y-99985351D01*
X150646174Y-99985352D01*
X150646172Y-99985354D01*
X150596485Y-100053741D01*
X150530476Y-100144594D01*
X150441117Y-100319970D01*
X150380290Y-100507173D01*
X150349500Y-100701577D01*
X144280102Y-100701577D01*
X142186095Y-98607570D01*
X142166726Y-98582469D01*
X142160578Y-98571952D01*
X142159577Y-98568216D01*
X142080520Y-98431284D01*
X142075287Y-98426051D01*
X142067462Y-98412665D01*
X142060844Y-98386019D01*
X142050942Y-98360406D01*
X142052544Y-98352593D01*
X142050622Y-98344854D01*
X142059463Y-98318855D01*
X142064979Y-98291960D01*
X142071701Y-98282866D01*
X142073117Y-98278705D01*
X142077149Y-98275498D01*
X142086825Y-98262410D01*
X142180520Y-98168716D01*
X142259577Y-98031784D01*
X142300500Y-97879057D01*
X142300500Y-97720943D01*
X142259577Y-97568216D01*
X142259576Y-97568214D01*
X142257473Y-97560365D01*
X142258165Y-97560179D01*
X142250500Y-97521637D01*
X142250500Y-93917312D01*
X142270185Y-93850273D01*
X142286819Y-93829631D01*
X148337819Y-87778631D01*
X148399142Y-87745146D01*
X148468834Y-87750130D01*
G37*
%TD.AperFunction*%
%TA.AperFunction,Conductor*%
G36*
X152347314Y-87119185D02*
G01*
X152367956Y-87135819D01*
X160119235Y-94887097D01*
X160141069Y-94919773D01*
X160141690Y-94919415D01*
X160224806Y-95063378D01*
X160224810Y-95063383D01*
X160224811Y-95063385D01*
X160336615Y-95175189D01*
X160336617Y-95175190D01*
X160336621Y-95175193D01*
X160473540Y-95254242D01*
X160473547Y-95254246D01*
X160626274Y-95295169D01*
X160626276Y-95295169D01*
X160784385Y-95295169D01*
X160784388Y-95295169D01*
X160929072Y-95256401D01*
X160998918Y-95258064D01*
X161056781Y-95297226D01*
X161084285Y-95361455D01*
X161085162Y-95376176D01*
X161085162Y-98447026D01*
X161065477Y-98514065D01*
X161048843Y-98534707D01*
X154762181Y-104821369D01*
X154700858Y-104854854D01*
X154631166Y-104849870D01*
X154575233Y-104807998D01*
X154550816Y-104742534D01*
X154550500Y-104733688D01*
X154550500Y-96250262D01*
X154550500Y-96250260D01*
X154512984Y-96110250D01*
X154440510Y-95984720D01*
X151704643Y-93248853D01*
X151671158Y-93187530D01*
X151676142Y-93117838D01*
X151718014Y-93061905D01*
X151772927Y-93038699D01*
X151815253Y-93031995D01*
X151892826Y-93019709D01*
X152080025Y-92958884D01*
X152255405Y-92869524D01*
X152414646Y-92753828D01*
X152553828Y-92614646D01*
X152669524Y-92455405D01*
X152758884Y-92280025D01*
X152819709Y-92092826D01*
X152850500Y-91898422D01*
X152850500Y-91701577D01*
X152819709Y-91507173D01*
X152791487Y-91420317D01*
X152758884Y-91319975D01*
X152758882Y-91319972D01*
X152758882Y-91319970D01*
X152695059Y-91194710D01*
X152669524Y-91144595D01*
X152553828Y-90985354D01*
X152414646Y-90846172D01*
X152255405Y-90730476D01*
X152080029Y-90641117D01*
X151892826Y-90580290D01*
X151698422Y-90549500D01*
X151698417Y-90549500D01*
X151501583Y-90549500D01*
X151501578Y-90549500D01*
X151307173Y-90580290D01*
X151119970Y-90641117D01*
X150944594Y-90730476D01*
X150853741Y-90796485D01*
X150785354Y-90846172D01*
X150785352Y-90846174D01*
X150785351Y-90846174D01*
X150646174Y-90985351D01*
X150646174Y-90985352D01*
X150646172Y-90985354D01*
X150596485Y-91053741D01*
X150530476Y-91144594D01*
X150441117Y-91319970D01*
X150380291Y-91507172D01*
X150361300Y-91627074D01*
X150331370Y-91690208D01*
X150272059Y-91727139D01*
X150202196Y-91726141D01*
X150151146Y-91695356D01*
X149686819Y-91231029D01*
X149653334Y-91169706D01*
X149650500Y-91143348D01*
X149650500Y-90424500D01*
X149670185Y-90357461D01*
X149722989Y-90311706D01*
X149774500Y-90300500D01*
X149929055Y-90300500D01*
X149929057Y-90300500D01*
X150081784Y-90259577D01*
X150218716Y-90180520D01*
X150330520Y-90068716D01*
X150409577Y-89931784D01*
X150429012Y-89859248D01*
X150461104Y-89803662D01*
X151918942Y-88345824D01*
X151951615Y-88323994D01*
X151951256Y-88323372D01*
X151958291Y-88319309D01*
X151958295Y-88319309D01*
X152095227Y-88240252D01*
X152207031Y-88128448D01*
X152286088Y-87991516D01*
X152327011Y-87838789D01*
X152327011Y-87680675D01*
X152286088Y-87527948D01*
X152286084Y-87527941D01*
X152207035Y-87391022D01*
X152207032Y-87391018D01*
X152207031Y-87391016D01*
X152127196Y-87311181D01*
X152116583Y-87291744D01*
X152102083Y-87275011D01*
X152100166Y-87261679D01*
X152093711Y-87249858D01*
X152095290Y-87227771D01*
X152092139Y-87205853D01*
X152097734Y-87193601D01*
X152098695Y-87180166D01*
X152111965Y-87162439D01*
X152121164Y-87142297D01*
X152132495Y-87135014D01*
X152140567Y-87124233D01*
X152161312Y-87116495D01*
X152179942Y-87104523D01*
X152201860Y-87101371D01*
X152206031Y-87099816D01*
X152214877Y-87099500D01*
X152280275Y-87099500D01*
X152347314Y-87119185D01*
G37*
%TD.AperFunction*%
%TA.AperFunction,Conductor*%
G36*
X167542539Y-85320185D02*
G01*
X167588294Y-85372989D01*
X167599500Y-85424500D01*
X167599500Y-107175500D01*
X167579815Y-107242539D01*
X167527011Y-107288294D01*
X167475500Y-107299500D01*
X135424500Y-107299500D01*
X135357461Y-107279815D01*
X135311706Y-107227011D01*
X135300500Y-107175500D01*
X135300500Y-98720943D01*
X140999500Y-98720943D01*
X140999500Y-98879057D01*
X141015535Y-98938898D01*
X141040423Y-99031783D01*
X141040426Y-99031790D01*
X141119475Y-99168709D01*
X141119479Y-99168714D01*
X141119480Y-99168716D01*
X141231284Y-99280520D01*
X141231286Y-99280521D01*
X141231290Y-99280524D01*
X141375254Y-99363641D01*
X141374895Y-99364262D01*
X141407570Y-99386095D01*
X148512986Y-106491510D01*
X148638515Y-106563984D01*
X148778525Y-106601500D01*
X148778526Y-106601500D01*
X148778528Y-106601500D01*
X154383547Y-106601500D01*
X154383549Y-106601500D01*
X154383550Y-106601500D01*
X154523560Y-106563984D01*
X154649090Y-106491510D01*
X162076172Y-99064428D01*
X162148646Y-98938898D01*
X162186162Y-98798888D01*
X162186162Y-94842700D01*
X162193829Y-94804160D01*
X162193135Y-94803974D01*
X162195239Y-94796122D01*
X162236162Y-94643395D01*
X162236162Y-94485281D01*
X162195239Y-94332554D01*
X162152646Y-94258780D01*
X162116186Y-94195628D01*
X162116180Y-94195620D01*
X162004379Y-94083819D01*
X162004371Y-94083813D01*
X161867452Y-94004764D01*
X161867448Y-94004762D01*
X161867446Y-94004761D01*
X161714719Y-93963838D01*
X161556605Y-93963838D01*
X161403878Y-94004761D01*
X161403871Y-94004764D01*
X161266952Y-94083813D01*
X161266948Y-94083816D01*
X161180993Y-94169771D01*
X161156945Y-94182901D01*
X161134753Y-94198959D01*
X161126725Y-94199402D01*
X161119669Y-94203255D01*
X161092342Y-94201300D01*
X161064990Y-94202811D01*
X161054306Y-94198580D01*
X161049978Y-94198271D01*
X161032126Y-94189942D01*
X161031715Y-94189708D01*
X160937115Y-94135092D01*
X160933944Y-94134242D01*
X160924254Y-94128745D01*
X160917489Y-94121756D01*
X160897759Y-94108573D01*
X152897678Y-86108491D01*
X152897677Y-86108490D01*
X152772147Y-86036016D01*
X152772148Y-86036016D01*
X152737144Y-86026637D01*
X152632137Y-85998500D01*
X148716450Y-85998500D01*
X148611442Y-86026637D01*
X148576439Y-86036016D01*
X148450911Y-86108489D01*
X148450908Y-86108491D01*
X141259491Y-93299908D01*
X141259489Y-93299911D01*
X141187016Y-93425439D01*
X141187016Y-93425440D01*
X141149500Y-93565450D01*
X141149500Y-93565452D01*
X141149500Y-97521637D01*
X141141834Y-97560179D01*
X141142527Y-97560365D01*
X141140423Y-97568214D01*
X141140423Y-97568216D01*
X141099500Y-97720943D01*
X141099500Y-97879057D01*
X141140423Y-98031784D01*
X141219480Y-98168716D01*
X141219484Y-98168720D01*
X141223862Y-98174426D01*
X141249057Y-98239595D01*
X141235020Y-98308040D01*
X141213169Y-98337595D01*
X141119478Y-98431286D01*
X141119475Y-98431290D01*
X141040426Y-98568209D01*
X141040423Y-98568216D01*
X140999500Y-98720943D01*
X135300500Y-98720943D01*
X135300500Y-85424500D01*
X135320185Y-85357461D01*
X135372989Y-85311706D01*
X135424500Y-85300500D01*
X142784108Y-85300500D01*
X167475500Y-85300500D01*
X167542539Y-85320185D01*
G37*
%TD.AperFunction*%
%TD*%
M02*
