%TF.GenerationSoftware,KiCad,Pcbnew,9.0.4*%
%TF.CreationDate,2025-12-18T13:03:24+01:00*%
%TF.ProjectId,Cansat_PCB_IHM,43616e73-6174-45f5-9043-425f49484d2e,rev?*%
%TF.SameCoordinates,Original*%
%TF.FileFunction,Legend,Top*%
%TF.FilePolarity,Positive*%
%FSLAX46Y46*%
G04 Gerber Fmt 4.6, Leading zero omitted, Abs format (unit mm)*
G04 Created by KiCad (PCBNEW 9.0.4) date 2025-12-18 13:03:24*
%MOMM*%
%LPD*%
G01*
G04 APERTURE LIST*
%ADD10C,0.070000*%
%ADD11C,0.150000*%
%ADD12C,0.120000*%
G04 APERTURE END LIST*
D10*
X135612718Y-86983732D02*
X136012718Y-86983732D01*
X135812718Y-87683732D02*
X135812718Y-86983732D01*
X136212718Y-87483732D02*
X136546051Y-87483732D01*
X136146051Y-87683732D02*
X136379385Y-86983732D01*
X136379385Y-86983732D02*
X136612718Y-87683732D01*
X136979385Y-86983732D02*
X137112718Y-86983732D01*
X137112718Y-86983732D02*
X137179385Y-87017065D01*
X137179385Y-87017065D02*
X137246051Y-87083732D01*
X137246051Y-87083732D02*
X137279385Y-87217065D01*
X137279385Y-87217065D02*
X137279385Y-87450399D01*
X137279385Y-87450399D02*
X137246051Y-87583732D01*
X137246051Y-87583732D02*
X137179385Y-87650399D01*
X137179385Y-87650399D02*
X137112718Y-87683732D01*
X137112718Y-87683732D02*
X136979385Y-87683732D01*
X136979385Y-87683732D02*
X136912718Y-87650399D01*
X136912718Y-87650399D02*
X136846051Y-87583732D01*
X136846051Y-87583732D02*
X136812718Y-87450399D01*
X136812718Y-87450399D02*
X136812718Y-87217065D01*
X136812718Y-87217065D02*
X136846051Y-87083732D01*
X136846051Y-87083732D02*
X136912718Y-87017065D01*
X136912718Y-87017065D02*
X136979385Y-86983732D01*
X137579384Y-86983732D02*
X137579384Y-87550399D01*
X137579384Y-87550399D02*
X137612718Y-87617065D01*
X137612718Y-87617065D02*
X137646051Y-87650399D01*
X137646051Y-87650399D02*
X137712718Y-87683732D01*
X137712718Y-87683732D02*
X137846051Y-87683732D01*
X137846051Y-87683732D02*
X137912718Y-87650399D01*
X137912718Y-87650399D02*
X137946051Y-87617065D01*
X137946051Y-87617065D02*
X137979384Y-87550399D01*
X137979384Y-87550399D02*
X137979384Y-86983732D01*
X138312717Y-87683732D02*
X138312717Y-86983732D01*
X138612717Y-87650399D02*
X138712717Y-87683732D01*
X138712717Y-87683732D02*
X138879384Y-87683732D01*
X138879384Y-87683732D02*
X138946050Y-87650399D01*
X138946050Y-87650399D02*
X138979384Y-87617065D01*
X138979384Y-87617065D02*
X139012717Y-87550399D01*
X139012717Y-87550399D02*
X139012717Y-87483732D01*
X139012717Y-87483732D02*
X138979384Y-87417065D01*
X138979384Y-87417065D02*
X138946050Y-87383732D01*
X138946050Y-87383732D02*
X138879384Y-87350399D01*
X138879384Y-87350399D02*
X138746050Y-87317065D01*
X138746050Y-87317065D02*
X138679384Y-87283732D01*
X138679384Y-87283732D02*
X138646050Y-87250399D01*
X138646050Y-87250399D02*
X138612717Y-87183732D01*
X138612717Y-87183732D02*
X138612717Y-87117065D01*
X138612717Y-87117065D02*
X138646050Y-87050399D01*
X138646050Y-87050399D02*
X138679384Y-87017065D01*
X138679384Y-87017065D02*
X138746050Y-86983732D01*
X138746050Y-86983732D02*
X138912717Y-86983732D01*
X138912717Y-86983732D02*
X139012717Y-87017065D01*
X139812717Y-87483732D02*
X140146050Y-87483732D01*
X139746050Y-87683732D02*
X139979384Y-86983732D01*
X139979384Y-86983732D02*
X140212717Y-87683732D01*
X140446050Y-87683732D02*
X140446050Y-87217065D01*
X140446050Y-87283732D02*
X140479384Y-87250399D01*
X140479384Y-87250399D02*
X140546050Y-87217065D01*
X140546050Y-87217065D02*
X140646050Y-87217065D01*
X140646050Y-87217065D02*
X140712717Y-87250399D01*
X140712717Y-87250399D02*
X140746050Y-87317065D01*
X140746050Y-87317065D02*
X140746050Y-87683732D01*
X140746050Y-87317065D02*
X140779384Y-87250399D01*
X140779384Y-87250399D02*
X140846050Y-87217065D01*
X140846050Y-87217065D02*
X140946050Y-87217065D01*
X140946050Y-87217065D02*
X141012717Y-87250399D01*
X141012717Y-87250399D02*
X141046050Y-87317065D01*
X141046050Y-87317065D02*
X141046050Y-87683732D01*
X141379383Y-87683732D02*
X141379383Y-87217065D01*
X141379383Y-87350399D02*
X141412717Y-87283732D01*
X141412717Y-87283732D02*
X141446050Y-87250399D01*
X141446050Y-87250399D02*
X141512717Y-87217065D01*
X141512717Y-87217065D02*
X141579383Y-87217065D01*
X136112718Y-88744026D02*
X136079385Y-88777360D01*
X136079385Y-88777360D02*
X135979385Y-88810693D01*
X135979385Y-88810693D02*
X135912718Y-88810693D01*
X135912718Y-88810693D02*
X135812718Y-88777360D01*
X135812718Y-88777360D02*
X135746052Y-88710693D01*
X135746052Y-88710693D02*
X135712718Y-88644026D01*
X135712718Y-88644026D02*
X135679385Y-88510693D01*
X135679385Y-88510693D02*
X135679385Y-88410693D01*
X135679385Y-88410693D02*
X135712718Y-88277360D01*
X135712718Y-88277360D02*
X135746052Y-88210693D01*
X135746052Y-88210693D02*
X135812718Y-88144026D01*
X135812718Y-88144026D02*
X135912718Y-88110693D01*
X135912718Y-88110693D02*
X135979385Y-88110693D01*
X135979385Y-88110693D02*
X136079385Y-88144026D01*
X136079385Y-88144026D02*
X136112718Y-88177360D01*
X136712718Y-88810693D02*
X136712718Y-88444026D01*
X136712718Y-88444026D02*
X136679385Y-88377360D01*
X136679385Y-88377360D02*
X136612718Y-88344026D01*
X136612718Y-88344026D02*
X136479385Y-88344026D01*
X136479385Y-88344026D02*
X136412718Y-88377360D01*
X136712718Y-88777360D02*
X136646052Y-88810693D01*
X136646052Y-88810693D02*
X136479385Y-88810693D01*
X136479385Y-88810693D02*
X136412718Y-88777360D01*
X136412718Y-88777360D02*
X136379385Y-88710693D01*
X136379385Y-88710693D02*
X136379385Y-88644026D01*
X136379385Y-88644026D02*
X136412718Y-88577360D01*
X136412718Y-88577360D02*
X136479385Y-88544026D01*
X136479385Y-88544026D02*
X136646052Y-88544026D01*
X136646052Y-88544026D02*
X136712718Y-88510693D01*
X137046051Y-88344026D02*
X137046051Y-88810693D01*
X137046051Y-88410693D02*
X137079385Y-88377360D01*
X137079385Y-88377360D02*
X137146051Y-88344026D01*
X137146051Y-88344026D02*
X137246051Y-88344026D01*
X137246051Y-88344026D02*
X137312718Y-88377360D01*
X137312718Y-88377360D02*
X137346051Y-88444026D01*
X137346051Y-88444026D02*
X137346051Y-88810693D01*
X137646051Y-88777360D02*
X137712718Y-88810693D01*
X137712718Y-88810693D02*
X137846051Y-88810693D01*
X137846051Y-88810693D02*
X137912718Y-88777360D01*
X137912718Y-88777360D02*
X137946051Y-88710693D01*
X137946051Y-88710693D02*
X137946051Y-88677360D01*
X137946051Y-88677360D02*
X137912718Y-88610693D01*
X137912718Y-88610693D02*
X137846051Y-88577360D01*
X137846051Y-88577360D02*
X137746051Y-88577360D01*
X137746051Y-88577360D02*
X137679384Y-88544026D01*
X137679384Y-88544026D02*
X137646051Y-88477360D01*
X137646051Y-88477360D02*
X137646051Y-88444026D01*
X137646051Y-88444026D02*
X137679384Y-88377360D01*
X137679384Y-88377360D02*
X137746051Y-88344026D01*
X137746051Y-88344026D02*
X137846051Y-88344026D01*
X137846051Y-88344026D02*
X137912718Y-88377360D01*
X138546051Y-88810693D02*
X138546051Y-88444026D01*
X138546051Y-88444026D02*
X138512718Y-88377360D01*
X138512718Y-88377360D02*
X138446051Y-88344026D01*
X138446051Y-88344026D02*
X138312718Y-88344026D01*
X138312718Y-88344026D02*
X138246051Y-88377360D01*
X138546051Y-88777360D02*
X138479385Y-88810693D01*
X138479385Y-88810693D02*
X138312718Y-88810693D01*
X138312718Y-88810693D02*
X138246051Y-88777360D01*
X138246051Y-88777360D02*
X138212718Y-88710693D01*
X138212718Y-88710693D02*
X138212718Y-88644026D01*
X138212718Y-88644026D02*
X138246051Y-88577360D01*
X138246051Y-88577360D02*
X138312718Y-88544026D01*
X138312718Y-88544026D02*
X138479385Y-88544026D01*
X138479385Y-88544026D02*
X138546051Y-88510693D01*
X138779384Y-88344026D02*
X139046051Y-88344026D01*
X138879384Y-88110693D02*
X138879384Y-88710693D01*
X138879384Y-88710693D02*
X138912718Y-88777360D01*
X138912718Y-88777360D02*
X138979384Y-88810693D01*
X138979384Y-88810693D02*
X139046051Y-88810693D01*
D11*
X165054819Y-96433333D02*
X165769104Y-96433333D01*
X165769104Y-96433333D02*
X165911961Y-96480952D01*
X165911961Y-96480952D02*
X166007200Y-96576190D01*
X166007200Y-96576190D02*
X166054819Y-96719047D01*
X166054819Y-96719047D02*
X166054819Y-96814285D01*
X165388152Y-95528571D02*
X166054819Y-95528571D01*
X165007200Y-95766666D02*
X165721485Y-96004761D01*
X165721485Y-96004761D02*
X165721485Y-95385714D01*
X147661905Y-88354819D02*
X147661905Y-87354819D01*
X147661905Y-87354819D02*
X147900000Y-87354819D01*
X147900000Y-87354819D02*
X148042857Y-87402438D01*
X148042857Y-87402438D02*
X148138095Y-87497676D01*
X148138095Y-87497676D02*
X148185714Y-87592914D01*
X148185714Y-87592914D02*
X148233333Y-87783390D01*
X148233333Y-87783390D02*
X148233333Y-87926247D01*
X148233333Y-87926247D02*
X148185714Y-88116723D01*
X148185714Y-88116723D02*
X148138095Y-88211961D01*
X148138095Y-88211961D02*
X148042857Y-88307200D01*
X148042857Y-88307200D02*
X147900000Y-88354819D01*
X147900000Y-88354819D02*
X147661905Y-88354819D01*
X149090476Y-87688152D02*
X149090476Y-88354819D01*
X148852381Y-87307200D02*
X148614286Y-88021485D01*
X148614286Y-88021485D02*
X149233333Y-88021485D01*
X150266667Y-96707200D02*
X150409524Y-96754819D01*
X150409524Y-96754819D02*
X150647619Y-96754819D01*
X150647619Y-96754819D02*
X150742857Y-96707200D01*
X150742857Y-96707200D02*
X150790476Y-96659580D01*
X150790476Y-96659580D02*
X150838095Y-96564342D01*
X150838095Y-96564342D02*
X150838095Y-96469104D01*
X150838095Y-96469104D02*
X150790476Y-96373866D01*
X150790476Y-96373866D02*
X150742857Y-96326247D01*
X150742857Y-96326247D02*
X150647619Y-96278628D01*
X150647619Y-96278628D02*
X150457143Y-96231009D01*
X150457143Y-96231009D02*
X150361905Y-96183390D01*
X150361905Y-96183390D02*
X150314286Y-96135771D01*
X150314286Y-96135771D02*
X150266667Y-96040533D01*
X150266667Y-96040533D02*
X150266667Y-95945295D01*
X150266667Y-95945295D02*
X150314286Y-95850057D01*
X150314286Y-95850057D02*
X150361905Y-95802438D01*
X150361905Y-95802438D02*
X150457143Y-95754819D01*
X150457143Y-95754819D02*
X150695238Y-95754819D01*
X150695238Y-95754819D02*
X150838095Y-95802438D01*
X151171429Y-95754819D02*
X151409524Y-96754819D01*
X151409524Y-96754819D02*
X151600000Y-96040533D01*
X151600000Y-96040533D02*
X151790476Y-96754819D01*
X151790476Y-96754819D02*
X152028572Y-95754819D01*
X152314286Y-95754819D02*
X152933333Y-95754819D01*
X152933333Y-95754819D02*
X152600000Y-96135771D01*
X152600000Y-96135771D02*
X152742857Y-96135771D01*
X152742857Y-96135771D02*
X152838095Y-96183390D01*
X152838095Y-96183390D02*
X152885714Y-96231009D01*
X152885714Y-96231009D02*
X152933333Y-96326247D01*
X152933333Y-96326247D02*
X152933333Y-96564342D01*
X152933333Y-96564342D02*
X152885714Y-96659580D01*
X152885714Y-96659580D02*
X152838095Y-96707200D01*
X152838095Y-96707200D02*
X152742857Y-96754819D01*
X152742857Y-96754819D02*
X152457143Y-96754819D01*
X152457143Y-96754819D02*
X152361905Y-96707200D01*
X152361905Y-96707200D02*
X152314286Y-96659580D01*
X147961905Y-104054819D02*
X147961905Y-103054819D01*
X147961905Y-103054819D02*
X148200000Y-103054819D01*
X148200000Y-103054819D02*
X148342857Y-103102438D01*
X148342857Y-103102438D02*
X148438095Y-103197676D01*
X148438095Y-103197676D02*
X148485714Y-103292914D01*
X148485714Y-103292914D02*
X148533333Y-103483390D01*
X148533333Y-103483390D02*
X148533333Y-103626247D01*
X148533333Y-103626247D02*
X148485714Y-103816723D01*
X148485714Y-103816723D02*
X148438095Y-103911961D01*
X148438095Y-103911961D02*
X148342857Y-104007200D01*
X148342857Y-104007200D02*
X148200000Y-104054819D01*
X148200000Y-104054819D02*
X147961905Y-104054819D01*
X149438095Y-103054819D02*
X148961905Y-103054819D01*
X148961905Y-103054819D02*
X148914286Y-103531009D01*
X148914286Y-103531009D02*
X148961905Y-103483390D01*
X148961905Y-103483390D02*
X149057143Y-103435771D01*
X149057143Y-103435771D02*
X149295238Y-103435771D01*
X149295238Y-103435771D02*
X149390476Y-103483390D01*
X149390476Y-103483390D02*
X149438095Y-103531009D01*
X149438095Y-103531009D02*
X149485714Y-103626247D01*
X149485714Y-103626247D02*
X149485714Y-103864342D01*
X149485714Y-103864342D02*
X149438095Y-103959580D01*
X149438095Y-103959580D02*
X149390476Y-104007200D01*
X149390476Y-104007200D02*
X149295238Y-104054819D01*
X149295238Y-104054819D02*
X149057143Y-104054819D01*
X149057143Y-104054819D02*
X148961905Y-104007200D01*
X148961905Y-104007200D02*
X148914286Y-103959580D01*
X136754819Y-96533333D02*
X137469104Y-96533333D01*
X137469104Y-96533333D02*
X137611961Y-96580952D01*
X137611961Y-96580952D02*
X137707200Y-96676190D01*
X137707200Y-96676190D02*
X137754819Y-96819047D01*
X137754819Y-96819047D02*
X137754819Y-96914285D01*
X136754819Y-96152380D02*
X136754819Y-95533333D01*
X136754819Y-95533333D02*
X137135771Y-95866666D01*
X137135771Y-95866666D02*
X137135771Y-95723809D01*
X137135771Y-95723809D02*
X137183390Y-95628571D01*
X137183390Y-95628571D02*
X137231009Y-95580952D01*
X137231009Y-95580952D02*
X137326247Y-95533333D01*
X137326247Y-95533333D02*
X137564342Y-95533333D01*
X137564342Y-95533333D02*
X137659580Y-95580952D01*
X137659580Y-95580952D02*
X137707200Y-95628571D01*
X137707200Y-95628571D02*
X137754819Y-95723809D01*
X137754819Y-95723809D02*
X137754819Y-96009523D01*
X137754819Y-96009523D02*
X137707200Y-96104761D01*
X137707200Y-96104761D02*
X137659580Y-96152380D01*
X148457142Y-86359580D02*
X148409523Y-86407200D01*
X148409523Y-86407200D02*
X148266666Y-86454819D01*
X148266666Y-86454819D02*
X148171428Y-86454819D01*
X148171428Y-86454819D02*
X148028571Y-86407200D01*
X148028571Y-86407200D02*
X147933333Y-86311961D01*
X147933333Y-86311961D02*
X147885714Y-86216723D01*
X147885714Y-86216723D02*
X147838095Y-86026247D01*
X147838095Y-86026247D02*
X147838095Y-85883390D01*
X147838095Y-85883390D02*
X147885714Y-85692914D01*
X147885714Y-85692914D02*
X147933333Y-85597676D01*
X147933333Y-85597676D02*
X148028571Y-85502438D01*
X148028571Y-85502438D02*
X148171428Y-85454819D01*
X148171428Y-85454819D02*
X148266666Y-85454819D01*
X148266666Y-85454819D02*
X148409523Y-85502438D01*
X148409523Y-85502438D02*
X148457142Y-85550057D01*
X148790476Y-85454819D02*
X149409523Y-85454819D01*
X149409523Y-85454819D02*
X149076190Y-85835771D01*
X149076190Y-85835771D02*
X149219047Y-85835771D01*
X149219047Y-85835771D02*
X149314285Y-85883390D01*
X149314285Y-85883390D02*
X149361904Y-85931009D01*
X149361904Y-85931009D02*
X149409523Y-86026247D01*
X149409523Y-86026247D02*
X149409523Y-86264342D01*
X149409523Y-86264342D02*
X149361904Y-86359580D01*
X149361904Y-86359580D02*
X149314285Y-86407200D01*
X149314285Y-86407200D02*
X149219047Y-86454819D01*
X149219047Y-86454819D02*
X148933333Y-86454819D01*
X148933333Y-86454819D02*
X148838095Y-86407200D01*
X148838095Y-86407200D02*
X148790476Y-86359580D01*
X150361904Y-86454819D02*
X149790476Y-86454819D01*
X150076190Y-86454819D02*
X150076190Y-85454819D01*
X150076190Y-85454819D02*
X149980952Y-85597676D01*
X149980952Y-85597676D02*
X149885714Y-85692914D01*
X149885714Y-85692914D02*
X149790476Y-85740533D01*
X147257142Y-106959580D02*
X147209523Y-107007200D01*
X147209523Y-107007200D02*
X147066666Y-107054819D01*
X147066666Y-107054819D02*
X146971428Y-107054819D01*
X146971428Y-107054819D02*
X146828571Y-107007200D01*
X146828571Y-107007200D02*
X146733333Y-106911961D01*
X146733333Y-106911961D02*
X146685714Y-106816723D01*
X146685714Y-106816723D02*
X146638095Y-106626247D01*
X146638095Y-106626247D02*
X146638095Y-106483390D01*
X146638095Y-106483390D02*
X146685714Y-106292914D01*
X146685714Y-106292914D02*
X146733333Y-106197676D01*
X146733333Y-106197676D02*
X146828571Y-106102438D01*
X146828571Y-106102438D02*
X146971428Y-106054819D01*
X146971428Y-106054819D02*
X147066666Y-106054819D01*
X147066666Y-106054819D02*
X147209523Y-106102438D01*
X147209523Y-106102438D02*
X147257142Y-106150057D01*
X147590476Y-106054819D02*
X148209523Y-106054819D01*
X148209523Y-106054819D02*
X147876190Y-106435771D01*
X147876190Y-106435771D02*
X148019047Y-106435771D01*
X148019047Y-106435771D02*
X148114285Y-106483390D01*
X148114285Y-106483390D02*
X148161904Y-106531009D01*
X148161904Y-106531009D02*
X148209523Y-106626247D01*
X148209523Y-106626247D02*
X148209523Y-106864342D01*
X148209523Y-106864342D02*
X148161904Y-106959580D01*
X148161904Y-106959580D02*
X148114285Y-107007200D01*
X148114285Y-107007200D02*
X148019047Y-107054819D01*
X148019047Y-107054819D02*
X147733333Y-107054819D01*
X147733333Y-107054819D02*
X147638095Y-107007200D01*
X147638095Y-107007200D02*
X147590476Y-106959580D01*
X148590476Y-106150057D02*
X148638095Y-106102438D01*
X148638095Y-106102438D02*
X148733333Y-106054819D01*
X148733333Y-106054819D02*
X148971428Y-106054819D01*
X148971428Y-106054819D02*
X149066666Y-106102438D01*
X149066666Y-106102438D02*
X149114285Y-106150057D01*
X149114285Y-106150057D02*
X149161904Y-106245295D01*
X149161904Y-106245295D02*
X149161904Y-106340533D01*
X149161904Y-106340533D02*
X149114285Y-106483390D01*
X149114285Y-106483390D02*
X148542857Y-107054819D01*
X148542857Y-107054819D02*
X149161904Y-107054819D01*
D12*
%TO.C,J4*%
X163490000Y-93190000D02*
X163490000Y-94240000D01*
X163490000Y-94240000D02*
X162500000Y-94240000D01*
X163490000Y-99410000D02*
X163490000Y-98360000D01*
X164640000Y-93190000D02*
X163490000Y-93190000D01*
X164640000Y-99410000D02*
X163490000Y-99410000D01*
X166610000Y-94360000D02*
X166610000Y-98240000D01*
%TO.C,D4*%
X150000000Y-88950000D02*
X150000000Y-86950000D01*
X150000000Y-88950000D02*
X153200000Y-88950000D01*
X150300000Y-86650000D02*
X150000000Y-86950000D01*
X150300000Y-86650000D02*
X153200000Y-86650000D01*
X153200000Y-86650000D02*
X153200000Y-88950000D01*
%TO.C,SW3*%
X145400000Y-91700000D02*
X147000000Y-90100000D01*
X145400000Y-92850000D02*
X145400000Y-91700000D01*
X145400000Y-94750000D02*
X145400000Y-97850000D01*
X145400000Y-99750000D02*
X145400000Y-100900000D01*
X145400000Y-100900000D02*
X147000000Y-102500000D01*
X147000000Y-90100000D02*
X156200000Y-90100000D01*
X147000000Y-102500000D02*
X156200000Y-102500000D01*
X156200000Y-90100000D02*
X157800000Y-91700000D01*
X156200000Y-102500000D02*
X157800000Y-100900000D01*
X157800000Y-92850000D02*
X157800000Y-91700000D01*
X157800000Y-94750000D02*
X157800000Y-97850000D01*
X157800000Y-99750000D02*
X157800000Y-100900000D01*
%TO.C,D5*%
X149985000Y-105950000D02*
X149985000Y-103950000D01*
X149985000Y-105950000D02*
X153185000Y-105950000D01*
X150285000Y-103650000D02*
X149985000Y-103950000D01*
X150285000Y-103650000D02*
X153185000Y-103650000D01*
X153185000Y-103650000D02*
X153185000Y-105950000D01*
%TO.C,J3*%
X136290000Y-99240000D02*
X136290000Y-93360000D01*
X138260000Y-92190000D02*
X139410000Y-92190000D01*
X138260000Y-100410000D02*
X139410000Y-100410000D01*
X139410000Y-92190000D02*
X139410000Y-93240000D01*
X139410000Y-99360000D02*
X140400000Y-99360000D01*
X139410000Y-100410000D02*
X139410000Y-99360000D01*
%TO.C,C31*%
X151707836Y-85540000D02*
X151492164Y-85540000D01*
X151707836Y-86260000D02*
X151492164Y-86260000D01*
%TO.C,C32*%
X151707836Y-106340000D02*
X151492164Y-106340000D01*
X151707836Y-107060000D02*
X151492164Y-107060000D01*
%TD*%
M02*
